<svg width="150" height="150" version="1.1" xmlns="http://www.w3.org/2000/svg" desc="Developed by: Aleksandr Kireev (https://bespredel.name)" ><path fill="rgb(25,27,33)" stroke="rgb(25,27,33)" stroke-width="1" opacity="1" d="M 128.5 18 L 131 18.5 L 128.5 19 L 128.5 18 Z " /><path fill="rgb(25,27,33)" stroke="rgb(25,27,33)" stroke-width="1" opacity="1" d="M 124.5 20 L 133 20 L 133 22 Q 135.7 20.9 135 23.5 L 139 31.5 L 139 59.5 L 138.5 64 L 136 64.5 L 139 65.5 L 138.5 68 L 134 68.5 L 139 69.5 L 136 70.5 L 139 71.5 L 128 72.5 L 136 73.5 L 132 74.5 L 136 75.5 L 126 76.5 L 132 77.5 L 128 78.5 L 136 79.5 L 120 80.5 L 128 81.5 L 124 82.5 L 128 83.5 L 118 84.5 L 124 85.5 L 120 86.5 L 128 87.5 L 112 88.5 L 120 89.5 L 116 90.5 L 118 91.5 L 110 92.5 L 116 93.5 L 112 94.5 L 116 95.5 L 104 96.5 L 112 97.5 L 108 98.5 L 112 99.5 L 102 100.5 L 108 101.5 L 104 102.5 L 112 103.5 L 96 104.5 L 104 105.5 L 100 106.5 L 104 107.5 L 94 108.5 L 100 109.5 L 96 110.5 L 104 111.5 L 88 112.5 L 96 113.5 L 92 114.5 L 96 115.5 L 86 116.5 L 92 117.5 L 88 118.5 L 91 119.5 L 80 120.5 L 88 121.5 L 84 122.5 L 88 123.5 L 78 124.5 L 84 125.5 L 80 126.5 L 88 127.5 L 72 128.5 L 80 129.5 L 76 130.5 L 80 131.5 L 70 132.5 L 76 133.5 L 72 134.5 L 80 135.5 L 64 136.5 L 72 137.5 L 67.5 139 L 59.5 139 L 31.5 139 L 22 135 Q 23.1 132.3 20.5 133 L 20.5 132 L 22 131.5 L 18 130.5 L 20 129.5 L 16 128.5 L 28 127.5 L 20 126.5 L 24 125.5 L 20 124.5 L 29 124 L 29.5 126 L 32.5 125 L 54.5 125 L 59 121.5 Q 59.8 116.8 56.5 116 L 44.5 116 L 43.5 115 L 37.5 115 L 34 114.5 L 36 113.5 L 34 112.5 L 44 111.5 L 36 110.5 L 40 109.5 L 36 108.5 L 46 107.5 L 40 106.5 L 44 105.5 L 40 104.5 L 52 103.5 L 44 102.5 L 48 101.5 L 44 100.5 L 54 99.5 L 48 98.5 L 52 97.5 L 48 96.5 L 57.5 96 Q 64.2 104.3 81.5 102 Q 92.4 98.9 98 90.5 Q 104 83.5 102 68.5 Q 100.3 60.7 95 56.5 L 100 55.5 L 93 54.5 L 96 53.5 L 92 52.5 L 102 51.5 L 96 50.5 L 100 49.5 L 96 48.5 L 108 47.5 L 100 46.5 L 104 45.5 L 100 44.5 L 110 43.5 L 104 42.5 L 108 41.5 L 104 40.5 L 116 40 L 115 43.5 L 116 44.5 L 116 56.5 L 118.5 59 Q 123.3 59.8 124 56.5 L 125 54.5 L 125 32.5 L 126 31.5 L 125.5 29 L 124 28.5 L 126 27.5 L 123 26.5 L 123.5 25 L 120 24.5 L 132 23.5 L 124 22.5 L 128 21.5 Q 123.6 21.9 124.5 20 Z " /><path fill="rgb(25,27,33)" stroke="rgb(25,27,33)" stroke-width="1" opacity="1" d="M 112.5 34 L 116 34.5 L 112.5 35 L 112.5 34 Z " /><path fill="rgb(25,27,33)" stroke="rgb(25,27,33)" stroke-width="1" opacity="1" d="M 108.5 36 L 116 36.5 L 115.5 39 L 108 38.5 L 112 37.5 Q 107.6 37.9 108.5 36 Z " /><path fill="rgb(25,27,33)" stroke="rgb(25,27,33)" stroke-width="1" opacity="1" d="M 84.5 62 L 88 62.5 L 84.5 63 L 84.5 62 Z " /><path fill="rgb(25,27,33)" stroke="rgb(25,27,33)" stroke-width="1" opacity="1" d="M 80.5 64 L 89.5 64 L 91 65.5 L 93 70.5 L 93 79.5 Q 90.9 87.4 84.5 91 Q 79.8 94.3 70.5 93 L 63 88.5 L 68 87.5 L 61 86.5 L 64 85.5 L 60 84.5 L 70 83.5 L 64 82.5 L 69.5 82 Q 71.3 85.8 78.5 84 L 82 82 L 84 78.5 L 84 71.5 L 82 68 L 86 67.5 L 80 66.5 L 84 65.5 Q 79.6 65.9 80.5 64 Z " /><path fill="rgb(25,27,33)" stroke="rgb(25,27,33)" stroke-width="1" opacity="1" d="M 64.5 80 L 68 80.5 L 64.5 81 L 64.5 80 Z " /><path fill="rgb(25,27,33)" stroke="rgb(25,27,33)" stroke-width="1" opacity="1" d="M 52.5 94 L 56 94.5 L 52.5 95 L 52.5 94 Z " /><path fill="rgb(0,0,0)" stroke="rgb(0,0,0)" stroke-width="1" opacity="0" d="M 0 0 L 150 0 L 150 150 L 0 150 L 0 0 Z M 33 8 L 21 13 Q 11 19 8 33 L 8 118 L 13 130 Q 19 139 33 142 L 118 142 L 130 137 Q 139 131 142 118 L 142 33 L 137 21 Q 131 11 118 8 L 33 8 Z " /><path fill="rgb(41,72,99)" stroke="rgb(41,72,99)" stroke-width="1" opacity="0.9215686274509803" d="M 33.5 9 L 116.5 9 L 123.5 11 L 133 17 L 139 26.5 L 141 33.5 L 141 116.5 Q 138.8 127.8 131.5 134 Q 125.8 139.3 116.5 141 L 33.5 141 L 26.5 139 L 17 133 L 11 123.5 L 9 116.5 L 9 33.5 L 11 26.5 L 17 17 L 26.5 11 L 33.5 9 Z M 35 10 L 21 16 Q 12 22 10 35 L 10 116 L 15 129 Q 21 138 35 140 L 117 140 L 129 135 Q 138 129 140 117 L 140 35 L 135 22 Q 129 12 116 10 L 35 10 Z " /><path fill="rgb(41,72,99)" stroke="rgb(41,72,99)" stroke-width="1" opacity="0.9215686274509803" d="M 30.5 25 L 55 25.5 L 30.5 26 L 30.5 25 Z " /><path fill="rgb(41,72,99)" stroke="rgb(41,72,99)" stroke-width="1" opacity="0.9215686274509803" d="M 96.5 25 L 121 25.5 L 96.5 26 L 96.5 25 Z " /><path fill="rgb(41,72,99)" stroke="rgb(41,72,99)" stroke-width="1" opacity="0.9215686274509803" d="M 27.5 26 L 26.5 28 L 27.5 26 Z " /><path fill="rgb(41,72,99)" stroke="rgb(41,72,99)" stroke-width="1" opacity="0.9215686274509803" d="M 122.5 26 L 123.5 28 L 122.5 26 Z " /><path fill="rgb(41,72,99)" stroke="rgb(41,72,99)" stroke-width="1" opacity="0.9215686274509803" d="M 58.5 28 L 59 31.5 L 56 33.5 Q 58.8 32.3 58.5 28 Z " /><path fill="rgb(41,72,99)" stroke="rgb(41,72,99)" stroke-width="1" opacity="0.9215686274509803" d="M 91.5 28 Q 91.3 32.3 94 33.5 L 91 31.5 L 91.5 28 Z " /><path fill="rgb(41,72,99)" stroke="rgb(41,72,99)" stroke-width="1" opacity="0.9215686274509803" d="M 124.5 29 L 125 53.5 L 124 53.5 L 124.5 29 Z " /><path fill="rgb(41,72,99)" stroke="rgb(41,72,99)" stroke-width="1" opacity="0.9215686274509803" d="M 25.5 30 L 26 54.5 L 25 54.5 L 25.5 30 Z " /><path fill="rgb(41,72,99)" stroke="rgb(41,72,99)" stroke-width="1" opacity="0.9215686274509803" d="M 58.5 53 L 53.5 59 L 58.5 53 Z " /><path fill="rgb(41,72,99)" stroke="rgb(41,72,99)" stroke-width="1" opacity="0.9215686274509803" d="M 91.5 53 L 96.5 59 L 91.5 53 Z " /><path fill="rgb(41,72,99)" stroke="rgb(41,72,99)" stroke-width="1" opacity="0.9215686274509803" d="M 33.5 56 L 32.5 58 L 33.5 56 Z " /><path fill="rgb(41,72,99)" stroke="rgb(41,72,99)" stroke-width="1" opacity="0.9215686274509803" d="M 71.5 56 L 79 56.5 L 71.5 57 L 71.5 56 Z " /><path fill="rgb(41,72,99)" stroke="rgb(41,72,99)" stroke-width="1" opacity="0.9215686274509803" d="M 116.5 56 L 117.5 58 L 116.5 56 Z " /><path fill="rgb(41,72,99)" stroke="rgb(41,72,99)" stroke-width="1" opacity="0.9215686274509803" d="M 28.5 58 L 31 58.5 L 28.5 59 L 28.5 58 Z " /><path fill="rgb(41,72,99)" stroke="rgb(41,72,99)" stroke-width="1" opacity="0.9215686274509803" d="M 119.5 58 L 122 58.5 L 119.5 59 L 119.5 58 Z " /><path fill="rgb(41,72,99)" stroke="rgb(41,72,99)" stroke-width="1" opacity="0.9215686274509803" d="M 64.5 59 L 63.5 61 L 64.5 59 Z " /><path fill="rgb(41,72,99)" stroke="rgb(41,72,99)" stroke-width="1" opacity="0.9215686274509803" d="M 85.5 59 L 86.5 61 L 85.5 59 Z " /><path fill="rgb(41,72,99)" stroke="rgb(41,72,99)" stroke-width="1" opacity="0.9215686274509803" d="M 60.5 63 L 59.5 65 L 60.5 63 Z " /><path fill="rgb(41,72,99)" stroke="rgb(41,72,99)" stroke-width="1" opacity="0.9215686274509803" d="M 89.5 63 L 90.5 65 L 89.5 63 Z " /><path fill="rgb(41,72,99)" stroke="rgb(41,72,99)" stroke-width="1" opacity="0.9215686274509803" d="M 56.5 71 L 57 78.5 L 56 78.5 L 56.5 71 Z " /><path fill="rgb(41,72,99)" stroke="rgb(41,72,99)" stroke-width="1" opacity="0.9215686274509803" d="M 93.5 71 L 94 78.5 L 93 78.5 L 93.5 71 Z " /><path fill="rgb(41,72,99)" stroke="rgb(41,72,99)" stroke-width="1" opacity="0.9215686274509803" d="M 59.5 85 L 60.5 87 L 59.5 85 Z " /><path fill="rgb(41,72,99)" stroke="rgb(41,72,99)" stroke-width="1" opacity="0.9215686274509803" d="M 90.5 85 L 89.5 87 L 90.5 85 Z " /><path fill="rgb(41,72,99)" stroke="rgb(41,72,99)" stroke-width="1" opacity="0.9215686274509803" d="M 63.5 89 L 64.5 91 L 63.5 89 Z " /><path fill="rgb(41,72,99)" stroke="rgb(41,72,99)" stroke-width="1" opacity="0.9215686274509803" d="M 86.5 89 L 85.5 91 L 86.5 89 Z " /><path fill="rgb(41,72,99)" stroke="rgb(41,72,99)" stroke-width="1" opacity="0.9215686274509803" d="M 28.5 91 Q 33.3 90.3 34 93.5 L 31.5 92 Q 27.5 92.8 28.5 91 Z " /><path fill="rgb(41,72,99)" stroke="rgb(41,72,99)" stroke-width="1" opacity="0.9215686274509803" d="M 53.5 91 L 58.5 97 L 53.5 91 Z " /><path fill="rgb(41,72,99)" stroke="rgb(41,72,99)" stroke-width="1" opacity="0.9215686274509803" d="M 96.5 91 L 91.5 97 L 96.5 91 Z " /><path fill="rgb(41,72,99)" stroke="rgb(41,72,99)" stroke-width="1" opacity="0.9215686274509803" d="M 119.5 91 L 122 91.5 L 119.5 92 L 119.5 91 Z " /><path fill="rgb(41,72,99)" stroke="rgb(41,72,99)" stroke-width="1" opacity="0.9215686274509803" d="M 117.5 92 L 116.5 94 L 117.5 92 Z " /><path fill="rgb(41,72,99)" stroke="rgb(41,72,99)" stroke-width="1" opacity="0.9215686274509803" d="M 71.5 93 L 79 93.5 L 71.5 94 L 71.5 93 Z " /><path fill="rgb(41,72,99)" stroke="rgb(41,72,99)" stroke-width="1" opacity="0.9215686274509803" d="M 25.5 95 L 26 119.5 L 25 119.5 L 25.5 95 Z " /><path fill="rgb(41,72,99)" stroke="rgb(41,72,99)" stroke-width="1" opacity="0.9215686274509803" d="M 124.5 95 L 125 119.5 L 124 119.5 L 124.5 95 Z " /><path fill="rgb(41,72,99)" stroke="rgb(41,72,99)" stroke-width="1" opacity="0.9215686274509803" d="M 56.5 116 Q 59.8 116.8 59 121.5 L 58 121.5 Q 58.5 116.8 56.5 116 Z " /><path fill="rgb(41,72,99)" stroke="rgb(41,72,99)" stroke-width="1" opacity="0.9215686274509803" d="M 93.5 116 L 92 118.5 L 91.5 122 L 91 118.5 L 93.5 116 Z " /><path fill="rgb(41,72,99)" stroke="rgb(41,72,99)" stroke-width="1" opacity="0.9215686274509803" d="M 26.5 122 L 27.5 124 L 26.5 122 Z " /><path fill="rgb(41,72,99)" stroke="rgb(41,72,99)" stroke-width="1" opacity="0.9215686274509803" d="M 123.5 122 L 122.5 124 L 123.5 122 Z " /><path fill="rgb(41,72,99)" stroke="rgb(41,72,99)" stroke-width="1" opacity="0.9215686274509803" d="M 30.5 124 L 55 124.5 L 30.5 125 L 30.5 124 Z " /><path fill="rgb(41,72,99)" stroke="rgb(41,72,99)" stroke-width="1" opacity="0.9215686274509803" d="M 96.5 124 L 120 124.5 L 96.5 125 L 96.5 124 Z " /><path fill="rgb(27,30,37)" stroke="rgb(27,30,37)" stroke-width="1" opacity="1" d="M 34.5 10 L 115.5 10 Q 128.7 12.3 135 21.5 L 133 22 L 132.5 20 L 124.5 20 L 124.5 21 L 128 21.5 L 124 22.5 L 132 23.5 L 120.5 24 L 119.5 25 L 111.5 25 L 96.5 25 L 91 28.5 Q 90.3 33.3 93.5 34 L 103.5 34 L 104.5 35 L 112.5 35 L 116 35.5 L 108 36.5 L 112 37.5 L 108 38.5 L 116 39.5 L 104 40.5 L 108 41.5 L 104 42.5 L 110 43.5 L 100 44.5 L 104 45.5 L 100 46.5 L 108 47.5 L 96 48.5 L 100 49.5 L 96 50.5 L 102 51.5 L 92 52.5 L 96 53.5 L 92.5 54 L 89 51.5 L 88.5 50 L 86.5 50 Q 80.4 46.6 69.5 48 Q 58.6 50.6 53 58.5 Q 46.3 65.3 48 80.5 L 51 87.5 L 50.5 89 L 53 90.5 L 52 92.5 L 55 93.5 L 52 94.5 L 57 95.5 L 48 96.5 L 52 97.5 L 48 98.5 L 54 99.5 L 44 100.5 L 48 101.5 L 44 102.5 L 52 103.5 L 40 104.5 L 44 105.5 L 40 106.5 L 46 107.5 L 36 108.5 L 40 109.5 L 36 110.5 L 44 111.5 L 34.5 112 L 34 103.5 L 34 93.5 L 31.5 91 Q 26.8 90.3 26 93.5 L 25 95.5 L 25 111.5 L 24 112.5 L 24 118.5 L 26 120.5 Q 26.8 122.8 24.5 122 L 24.5 123 L 27 123.5 L 20 124.5 L 24 125.5 L 20 126.5 L 28 127.5 L 16 128.5 L 20 129.5 L 18 130.5 L 22 131.5 L 20 132.5 L 22 133 L 21.5 135 Q 12.3 128.7 10 115.5 L 10 34.5 Q 12.4 22.4 20.5 16 L 34.5 10 Z M 129 18 L 129 19 L 131 19 L 129 18 Z M 31 25 L 28 26 L 25 31 L 25 55 L 29 59 L 34 57 L 34 34 L 57 34 Q 60 33 59 29 L 55 25 L 31 25 Z " /><path fill="rgb(27,30,37)" stroke="rgb(27,30,37)" stroke-width="1" opacity="1" d="M 121.5 25 L 124 25.5 L 121.5 26 L 121.5 25 Z " /><path fill="rgb(27,30,37)" stroke="rgb(27,30,37)" stroke-width="1" opacity="1" d="M 139.5 34 L 140 116.5 L 139 116.5 L 139.5 34 Z " /><path fill="rgb(27,30,37)" stroke="rgb(27,30,37)" stroke-width="1" opacity="1" d="M 94.5 55 L 100 55.5 L 94.5 56 L 94.5 55 Z " /><path fill="rgb(27,30,37)" stroke="rgb(27,30,37)" stroke-width="1" opacity="1" d="M 69.5 57 L 80.5 57 L 85 59.5 L 84.5 61 Q 88.3 60.3 89 62.5 L 88.5 64 L 80.5 64 L 80.5 65 L 84 65.5 L 80 66.5 L 86 67.5 L 81.5 69 Q 79.6 64.9 72.5 66 L 67 70.5 L 66 77.5 L 67 80 L 64 80.5 L 69 81.5 L 64 82.5 L 70 83.5 L 60 84.5 L 64 85.5 L 60.5 86 L 57 80.5 L 57 69.5 L 62.5 61 L 69.5 57 Z M 85 62 L 85 63 L 88 63 L 85 62 Z " /><path fill="rgb(27,30,37)" stroke="rgb(27,30,37)" stroke-width="1" opacity="1" d="M 61.5 87 L 68 87.5 L 62.5 89 L 61.5 87 Z " /><path fill="rgb(27,30,37)" stroke="rgb(27,30,37)" stroke-width="1" opacity="1" d="M 88.5 87 L 87.5 89 L 88.5 87 Z " /><path fill="rgb(27,30,37)" stroke="rgb(27,30,37)" stroke-width="1" opacity="1" d="M 34.5 115 L 38 115.5 L 34.5 116 L 34.5 115 Z " /><path fill="rgb(27,30,37)" stroke="rgb(27,30,37)" stroke-width="1" opacity="1" d="M 136.5 125 L 135.5 127 L 136.5 125 Z " /><path fill="rgb(27,30,37)" stroke="rgb(27,30,37)" stroke-width="1" opacity="1" d="M 134.5 128 L 128.5 135 L 134.5 128 Z " /><path fill="rgb(27,30,37)" stroke="rgb(27,30,37)" stroke-width="1" opacity="1" d="M 126.5 135 L 125.5 137 L 126.5 135 Z " /><path fill="rgb(27,30,37)" stroke="rgb(27,30,37)" stroke-width="1" opacity="1" d="M 34.5 139 L 117 139.5 L 34.5 140 L 34.5 139 Z " /><path fill="rgb(78,169,243)" stroke="rgb(78,169,243)" stroke-width="1" opacity="0.8823529411764706" d="M 32.5 8 L 117.5 8 Q 130.5 11 137 20.5 L 142 32.5 L 142 117.5 Q 139 130.5 129.5 137 L 117.5 142 L 32.5 142 Q 19.5 139 13 129.5 L 8 117.5 L 8 32.5 Q 11 19.5 20.5 13 L 32.5 8 Z M 34 9 L 27 11 L 17 17 L 11 27 L 9 34 L 9 117 L 11 124 L 17 133 L 27 139 L 34 141 L 117 141 Q 126 139 132 134 Q 139 128 141 117 L 141 34 L 139 27 L 133 17 L 124 11 L 117 9 L 34 9 Z " /><path fill="rgb(78,169,243)" stroke="rgb(78,169,243)" stroke-width="1" opacity="0.8823529411764706" d="M 28.5 26 L 55.5 26 L 58 27 Q 59.3 32.5 55.5 34 L 34 34 L 34 55.5 Q 32.5 59.3 27 58 L 26 55.5 L 26 28.5 L 28.5 26 Z " /><path fill="rgb(78,169,243)" stroke="rgb(78,169,243)" stroke-width="1" opacity="0.8823529411764706" d="M 94.5 26 L 121.5 26 L 124 28.5 L 124 55.5 L 123 58 Q 117.5 59.3 116 55.5 L 116 34 L 94.5 34 Q 90.8 32.5 92 27 L 94.5 26 Z " /><path fill="rgb(78,169,243)" stroke="rgb(78,169,243)" stroke-width="1" opacity="0.8823529411764706" d="M 71.5 48 Q 91.2 47.8 98 60.5 L 102 71.5 L 102 78.5 Q 99.5 92 89.5 98 L 78.5 102 L 71.5 102 Q 58 99.5 52 89.5 L 48 78.5 L 48 71.5 Q 50.5 58 60.5 52 L 71.5 48 Z M 72 56 L 65 59 Q 58 63 56 72 Q 55 81 59 86 Q 63 92 72 94 Q 81 95 86 91 Q 92 87 94 79 Q 95 69 91 65 Q 86 55 72 56 Z " /><path fill="rgb(78,169,243)" stroke="rgb(78,169,243)" stroke-width="1" opacity="0.8823529411764706" d="M 74.5 66 L 82 69.5 L 84 75.5 L 80.5 82 L 74.5 84 L 68 80.5 L 66 74.5 L 69.5 68 L 74.5 66 Z " /><path fill="rgb(78,169,243)" stroke="rgb(78,169,243)" stroke-width="1" opacity="0.8823529411764706" d="M 27 92 Q 32.5 90.8 34 94.5 L 34 116 L 55.5 116 Q 59.3 117.5 58 123 L 55.5 124 L 28.5 124 L 26 121.5 L 26 94.5 L 27 92 Z " /><path fill="rgb(78,169,243)" stroke="rgb(78,169,243)" stroke-width="1" opacity="0.8823529411764706" d="M 118.5 92 Q 123.9 90.1 123 93.5 L 124 94.5 L 124 121.5 L 121.5 124 L 94.5 124 L 92 123 Q 90.8 117.5 94.5 116 L 116 116 L 116 94.5 L 118.5 92 Z " /><path fill="rgb(24,26,31)" stroke="rgb(24,26,31)" stroke-width="1" opacity="1" d="M 136.5 64 L 139 64.5 L 136.5 65 L 136.5 64 Z " /><path fill="rgb(24,26,31)" stroke="rgb(24,26,31)" stroke-width="1" opacity="1" d="M 134.5 68 L 139 68.5 L 134.5 69 L 134.5 68 Z " /><path fill="rgb(24,26,31)" stroke="rgb(24,26,31)" stroke-width="1" opacity="1" d="M 136.5 70 L 139 70.5 L 136.5 71 L 136.5 70 Z " /><path fill="rgb(24,26,31)" stroke="rgb(24,26,31)" stroke-width="1" opacity="1" d="M 128.5 72 L 139 72 L 139 99.5 L 138.5 104 L 136 104.5 L 139 105.5 L 136 106.5 L 139 107.5 L 132 108.5 L 138 109.5 L 132 110.5 L 139 111.5 L 128 112.5 L 132 113.5 L 128 114.5 L 136 115.5 L 125 116 L 125 95.5 L 121.5 91 L 116 90.5 L 120 89.5 L 112 88.5 L 128 87.5 L 120 86.5 L 124 85.5 L 118 84.5 L 128 83.5 L 124 82.5 L 128 81.5 L 120 80.5 L 136 79.5 L 128 78.5 L 132 77.5 L 126 76.5 L 136 75.5 L 132 74.5 L 136 73.5 L 128.5 73 L 128.5 72 Z " /><path fill="rgb(24,26,31)" stroke="rgb(24,26,31)" stroke-width="1" opacity="1" d="M 110.5 92 L 117 92.5 L 110.5 93 L 110.5 92 Z " /><path fill="rgb(24,26,31)" stroke="rgb(24,26,31)" stroke-width="1" opacity="1" d="M 112.5 94 L 116 94.5 L 112.5 95 L 112.5 94 Z " /><path fill="rgb(24,26,31)" stroke="rgb(24,26,31)" stroke-width="1" opacity="1" d="M 104.5 96 L 116 96.5 L 116 104.5 L 116 116 L 104.5 116 L 95.5 115 L 92 114.5 L 96 113.5 L 88 112.5 L 104 111.5 L 96 110.5 L 100 109.5 L 94 108.5 L 104 107.5 L 100 106.5 L 104 105.5 L 96 104.5 L 112 103.5 L 104 102.5 L 108 101.5 L 102 100.5 L 112 99.5 L 108 98.5 L 112 97.5 L 104.5 97 L 104.5 96 Z " /><path fill="rgb(24,26,31)" stroke="rgb(24,26,31)" stroke-width="1" opacity="1" d="M 86.5 116 L 93 116.5 L 86.5 117 L 86.5 116 Z " /><path fill="rgb(24,26,31)" stroke="rgb(24,26,31)" stroke-width="1" opacity="1" d="M 125.5 117 L 130 117.5 L 125.5 118 L 125.5 117 Z " /><path fill="rgb(24,26,31)" stroke="rgb(24,26,31)" stroke-width="1" opacity="1" d="M 88.5 118 L 91 118.5 L 88.5 119 L 88.5 118 Z " /><path fill="rgb(24,26,31)" stroke="rgb(24,26,31)" stroke-width="1" opacity="1" d="M 125.5 119 L 132 119.5 L 125.5 120 L 125.5 119 Z " /><path fill="rgb(24,26,31)" stroke="rgb(24,26,31)" stroke-width="1" opacity="1" d="M 80.5 120 L 90.5 120 L 91 121.5 L 91.5 124 L 94.5 125 L 122 125.5 L 116 126.5 L 124 127.5 L 112 128.5 L 116 129.5 L 112 130.5 L 120 131.5 L 108 132.5 L 114 133.5 L 108 134.5 L 116 135.5 L 104 136.5 L 108 137.5 L 103.5 139 L 99.5 139 L 68 138.5 L 72 137.5 L 64 136.5 L 80 135.5 L 72 134.5 L 76 133.5 L 70 132.5 L 80 131.5 L 76 130.5 L 80 129.5 L 72 128.5 L 88 127.5 L 80 126.5 L 84 125.5 L 78 124.5 L 88 123.5 L 84 122.5 L 88 121.5 L 80.5 121 L 80.5 120 Z " /><path fill="rgb(24,26,31)" stroke="rgb(24,26,31)" stroke-width="1" opacity="1" d="M 123.5 123 L 128 123.5 L 123.5 124 L 123.5 123 Z " /><path fill="rgb(22,24,30)" stroke="rgb(22,24,30)" stroke-width="1" opacity="1" d="M 136.5 104 L 139 104.5 L 136.5 105 L 136.5 104 Z " /><path fill="rgb(22,24,30)" stroke="rgb(22,24,30)" stroke-width="1" opacity="1" d="M 136.5 106 L 139 106.5 L 136.5 107 L 136.5 106 Z " /><path fill="rgb(22,24,30)" stroke="rgb(22,24,30)" stroke-width="1" opacity="1" d="M 132.5 108 L 139 108 L 139 111 L 132 110.5 L 138 109.5 L 132.5 109 L 132.5 108 Z " /><path fill="rgb(22,24,30)" stroke="rgb(22,24,30)" stroke-width="1" opacity="1" d="M 128.5 112 L 139 112 L 139 118.5 Q 135.9 129.4 127.5 135 Q 120.2 141.2 104.5 139 L 104.5 138 L 108 137.5 L 104 136.5 L 116 135.5 L 108 134.5 L 114 133.5 L 108 132.5 L 120 131.5 L 112 130.5 L 116 129.5 L 112 128.5 L 124 127.5 L 116 126.5 L 122 125.5 L 120 124.5 L 128 123.5 L 124 123 L 125.5 120 L 132 119.5 L 125 118.5 L 130 117.5 L 125 116.5 L 136 115.5 L 128 114.5 L 132 113.5 Q 127.6 113.9 128.5 112 Z " /></svg>